<?xml version="1.0" encoding="UTF-8"?>
<svg xmlns="http://www.w3.org/2000/svg" xmlns:xlink="http://www.w3.org/1999/xlink" width="133px" height="141px" viewBox="0 0 133 140" version="1.1">
<g id="surface1">
<path style=" stroke:none;fill-rule:nonzero;fill:rgb(0%,0%,0%);fill-opacity:1;" d="M 56.367188 41.851562 L 56.523438 45.75 L 63.839844 45.894531 L 71.101562 46.050781 L 71.101562 59.144531 C 71.050781 69.804688 70.894531 72.601562 70.28125 74.25 C 68.847656 77.800781 69.054688 78.554688 71.820312 80.347656 C 73.148438 81.246094 74.582031 82 74.988281 82 C 75.863281 82 77.347656 79.203125 78.46875 75.550781 C 79.136719 73.25 79.289062 69.949219 79.289062 55.398438 L 79.289062 38.003906 L 56.214844 38.003906 Z M 56.367188 41.851562 "/>
<path style=" stroke:none;fill-rule:nonzero;fill:rgb(0%,0%,0%);fill-opacity:1;" d="M 80.816406 50.703125 C 80.816406 54.152344 80.972656 54.996094 81.585938 54.996094 C 83.074219 54.996094 89.109375 58.703125 90.648438 60.546875 C 91.511719 61.652344 92.539062 62.5 92.890625 62.5 C 93.558594 62.5 97.859375 60.351562 99.136719 59.351562 C 100.3125 58.453125 99.75 57.503906 95.304688 53.097656 C 91.261719 49.199219 90.441406 48.652344 87.570312 47.847656 C 85.835938 47.351562 83.582031 46.804688 82.617188 46.648438 L 80.816406 46.351562 Z M 80.816406 50.703125 "/>
<path style=" stroke:none;fill-rule:nonzero;fill:rgb(0%,0%,0%);fill-opacity:1;" d="M 66.757812 49.898438 C 63.683594 51.746094 58.625 57.699219 57.347656 61.054688 C 56.628906 62.796875 55.910156 64.449219 55.652344 64.695312 C 55.453125 64.996094 55.246094 67.296875 55.246094 69.84375 C 55.246094 74.097656 55.402344 74.796875 57.035156 78.253906 C 58.363281 81.101562 59.695312 82.898438 62.300781 85.394531 C 64.191406 87.253906 66.449219 89.253906 67.320312 89.851562 C 69.417969 91.296875 73.660156 92.453125 78.066406 92.84375 C 81.183594 93.101562 82.253906 92.949219 85.835938 91.75 C 88.132812 90.996094 90.285156 90.046875 90.597656 89.699219 C 90.898438 89.296875 91.5625 88.996094 92.082031 88.996094 C 92.589844 88.996094 93.503906 88.398438 94.171875 87.695312 C 94.835938 86.953125 96.019531 85.703125 96.832031 84.898438 C 97.597656 84.09375 98.210938 83.25 98.210938 83 C 98.210938 82.804688 98.574219 82.351562 98.980469 82 C 99.398438 81.648438 99.75 81.101562 99.699219 80.804688 C 99.644531 79.75 95.914062 77.152344 94.078125 76.800781 C 92.382812 76.5 92.175781 76.644531 90.542969 78.75 C 89.464844 80.152344 87.9375 81.402344 86.5 82.050781 C 85.222656 82.597656 83.632812 83.351562 83.019531 83.601562 C 81.234375 84.445312 75.757812 83.753906 72.839844 82.300781 C 70.03125 80.855469 68.546875 79.800781 68.546875 79.246094 C 68.546875 79.050781 67.882812 78.046875 67.007812 76.996094 C 66.1875 75.953125 65.480469 74.796875 65.480469 74.394531 C 65.480469 74.003906 65.222656 73.445312 64.910156 73.148438 C 63.488281 71.753906 65.628906 62.652344 68.039062 60.25 C 69.511719 58.753906 69.566406 58.546875 69.566406 53.851562 C 69.566406 48.546875 69.417969 48.351562 66.757812 49.898438 Z M 66.757812 49.898438 "/>
<path style=" stroke:none;fill-rule:nonzero;fill:rgb(0%,0%,0%);fill-opacity:1;" d="M 33.25 70.898438 C 33.25 73.148438 34.683594 77.945312 36.167969 80.597656 C 38.113281 84.054688 42.820312 88.253906 46.902344 90.101562 C 51.308594 92.152344 57.90625 92.597656 62.613281 91.296875 C 64.246094 90.851562 65.480469 90.296875 65.378906 90.101562 C 65.273438 89.902344 63.839844 88.5 62.15625 86.953125 C 59.132812 84.148438 59.027344 84.09375 55.507812 83.898438 C 48.140625 83.496094 42.558594 78.59375 41.582031 71.753906 L 41.28125 69.503906 L 33.25 69.503906 Z M 33.25 70.898438 "/>
</g>
</svg>
